<?xml version="1.0" standalone="no"?>
<!DOCTYPE svg PUBLIC "-//W3C//DTD SVG 20010904//EN"
 "http://www.w3.org/TR/2001/REC-SVG-20010904/DTD/svg10.dtd">
<svg version="1.0" xmlns="http://www.w3.org/2000/svg"
 width="225.000000pt" height="225.000000pt" viewBox="0 0 225.000000 225.000000"
 preserveAspectRatio="xMidYMid meet">
<metadata>
Created by potrace 1.14, written by Peter Selinger 2001-2017
</metadata>
<g transform="translate(0.000000,225.000000) scale(0.100000,-0.100000)"
fill="#000000" stroke="none">
<path d="M880 2233 c-308 -44 -501 -189 -580 -432 l-23 -71 -38 0 c-48 0 -49
-4 -46 -170 2 -121 3 -125 25 -128 20 -3 22 -9 23 -60 2 -120 16 -329 34 -487
3 -22 7 -78 11 -125 32 -454 149 -632 473 -717 86 -23 119 -26 326 -29 303 -4
444 20 590 101 183 101 261 278 289 655 9 109 17 202 21 228 8 50 23 285 24
389 1 35 4 42 24 45 22 3 22 5 22 148 l0 145 -41 3 -42 3 -27 75 c-84 239
-251 369 -536 418 -77 13 -454 19 -529 9z"/>
</g>
</svg>
